<?xml version="1.0" standalone="no"?><!DOCTYPE svg PUBLIC "-//W3C//DTD SVG 1.1//EN" "http://www.w3.org/Graphics/SVG/1.1/DTD/svg11.dtd"><svg t="1710552939651" class="icon" viewBox="0 0 1024 1024" version="1.1" xmlns="http://www.w3.org/2000/svg" p-id="4324" xmlns:xlink="http://www.w3.org/1999/xlink" width="200" height="200"><path d="M941.98 148.62c-3.38-26.77-6.36-49.11-7.02-63.67-12.6-20.53-35.73-17.41-44.04-2.08-0.78 1.3-5.33 7.8-31.96 22.09-20.4 10.91-46.91 22.87-77.7 36.9-61.59 27.81-138.39 62.5-204.91 107.19-80.82 54.18-130.19 111.62-150.86 175.67-1.11 3.32-2.1 6.76-3.08 10.2-7.91-5.01-42.08-53.47-109.18-111.29-51.07-44.18-125-94.07-209.07-108.24-17.02-2.86-32.48 10.65-33.39 29.5-0.52 11.04-1.17 22.86-1.82 35.47-7.4 135.26-18.45 339.51 95.38 470.23 20.92 24.04 46.9 43.27 77.18 58.34 58.73 29.36 133.18 43.13 217.76 46.64 11.28 0.48 15.07 0.37 15.04-3 0.19 0 0.37 0.01 0.55 0.01 0.52 23.12-4.16 46.9-14.03 71.07-4.94 12.09 0.91 25.99 12.99 30.93 2.99 1.17 5.98 1.81 8.84 1.81 9.35 0 18.19-5.58 21.96-14.68 13.64-33.39 17.93-63.28 17.54-88.61 70.42-0.26 133.18-10.52 186.71-30.28 55.74-20.53 102.91-51.84 140.2-93.03 34.83-38.33 61.59-86.02 79.78-141.75 15.34-46.78 24.95-100.18 28.59-159.17 6.89-106.53-6.62-210.99-15.46-280.25z m-153.19 220.5C485.53 563.11 520.74 809.59 520.74 809.59c3.64 35.99-2.86 44.18-8.83 47.56-5.33 3.11-11.7 3.89-17.68 2.21-14.03-4.16-15.07-16.11-14.81-21.57 0.13-2.34 0.13-4.68 0-6.88-5.46-107.33 7.14-131.89 17.93-173.07 5.72-21.96 18.58-43.4 27.93-64.05 69.9-153.06 208.54-241.03 243.5-261.3 6.62-3.9 14.55-5.06 21.82-2.73 9.23 3.12 11.83 9.62 11.83 16.11 0.13 9.48-5.59 18.18-13.64 23.25z" fill="#22AC38" p-id="4325"></path></svg>