<svg t="1704722663932" class="icon" viewBox="0 0 1024 1024" version="1.1" xmlns="http://www.w3.org/2000/svg"
    p-id="12335" width="200" height="200">
    <path
        d="M512 34.133333a34.133333 34.133333 0 0 1 34.133333 34.133334v68.266666a34.133333 34.133333 0 1 1-68.266666 0V68.266667a34.133333 34.133333 0 0 1 34.133333-34.133334z m0 819.2a34.133333 34.133333 0 0 1 34.133333 34.133334v68.266666a34.133333 34.133333 0 1 1-68.266666 0v-68.266666a34.133333 34.133333 0 0 1 34.133333-34.133334z m337.92-679.253333a34.133333 34.133333 0 0 1 0 48.298667l-48.298667 48.264533a34.133333 34.133333 0 1 1-48.264533-48.264533L801.621333 174.08a34.133333 34.133333 0 0 1 48.298667 0zM270.609067 753.390933a34.133333 34.133333 0 0 1 0 48.264534L222.378667 849.92A34.133333 34.133333 0 0 1 174.08 801.621333l48.264533-48.264533a34.133333 34.133333 0 0 1 48.264534 0zM955.733333 546.133333a34.133333 34.133333 0 1 0 0-68.266666h-68.266666a34.133333 34.133333 0 1 0 0 68.266666h68.266666zM136.533333 546.133333a34.133333 34.133333 0 1 0 0-68.266666H68.266667a34.133333 34.133333 0 1 0 0 68.266666h68.266666z m713.386667 303.786667a34.133333 34.133333 0 0 1-48.298667 0l-48.264533-48.298667a34.133333 34.133333 0 1 1 48.264533-48.264533l48.298667 48.264533a34.133333 34.133333 0 0 1 0 48.298667zM270.609067 270.609067a34.133333 34.133333 0 0 1-48.264534 0L174.08 222.378667A34.133333 34.133333 0 0 1 222.344533 174.08l48.264534 48.264533a34.133333 34.133333 0 0 1 0 48.264534zM750.933333 512a238.933333 238.933333 0 1 0-477.866666 0 238.933333 238.933333 0 0 0 477.866666 0z m68.266667 0a307.2 307.2 0 1 1-614.4 0 307.2 307.2 0 0 1 614.4 0z"
        fill="#202425" p-id="12336"></path>
</svg>